<svg viewBox="0 0 298.35 344.5" xmlns="http://www.w3.org/2000/svg" xmlns:xlink="http://www.w3.org/1999/xlink"><clipPath id="a"><path d="m288.35 252.6v-160.7l-139.18-80.35-139.17 80.35v160.7l139.17 80.36z"/></clipPath><linearGradient id="b" gradientUnits="userSpaceOnUse" x1="33.33" x2="261.28" y1="108.06" y2="234.4"><stop offset="0" stop-color="#df2778"/><stop offset=".1" stop-color="#d42574"/><stop offset=".28" stop-color="#b7226b"/><stop offset=".5" stop-color="#891d5d"/><stop offset=".77" stop-color="#4a164a"/><stop offset="1" stop-color="#0f1038"/></linearGradient><filter id="c" filterUnits="userSpaceOnUse" height="208.16" width="259.92" x="19.43" y="71.85"><feOffset dx="0" dy="0"/><feGaussianBlur result="blur" stdDeviation="4"/><feFlood flood-color="#fff" flood-opacity=".5"/><feComposite in2="blur" operator="in"/><feComposite in="SourceGraphic"/></filter><clipPath id="d"><circle cx="252.02" cy="112.71" r="15.29"/></clipPath><clipPath id="e"><path d="m243.87 194.21c0 12.16-9.85 22.01-22.01 22.01s-22.01-9.85-22.01-22.01 9.85-22.01 22.01-22.01 22.01 9.85 22.01 22.01z"/></clipPath><clipPath id="f"><path d="m76.45 107.49c0 12.42-10.07 22.49-22.49 22.49s-22.49-10.07-22.49-22.49 10.07-22.49 22.49-22.49 22.49 10.07 22.49 22.49z"/></clipPath><filter id="g" filterUnits="userSpaceOnUse" height="319.92" width="83.28" x="107.51" y="-43.27"><feOffset dx="0" dy="0"/><feGaussianBlur result="blur-2" stdDeviation="4"/><feFlood flood-color="#fff" flood-opacity=".7"/><feComposite in2="blur-2" operator="in"/><feComposite in="SourceGraphic"/></filter><linearGradient id="h" gradientUnits="userSpaceOnUse" x1="149" x2="149.59" y1="42.09" y2="241.77"><stop offset="0" stop-color="#aed248"/><stop offset=".12" stop-color="#a3ce4e"/><stop offset=".33" stop-color="#86c361"/><stop offset=".6" stop-color="#58b280"/><stop offset=".92" stop-color="#199ba9"/><stop offset="1" stop-color="#0895b5"/></linearGradient><g clip-path="url(#a)"><path d="m288.35 252.62v-160.7l-139.18-80.35-139.17 80.35v160.7l139.17 80.36z" fill="url(#b)"/><g fill="#fff"><path d="m-51.35 220.51c42.61-25.28 63.91-37.92 85.21-36.52 17.73 1.17 16.46 9.45 56.55 31.41 39.41 21.59 62.84 34.43 87.57 28.67 21.4-4.99 34.43-21.74 54.19-47.12 30.35-39 29.79-62.9 52.62-69.9 14.49-4.44 32.75-.34 43.1 11.65 14.82 17.19 10.72 47.54-2.75 55.76-15.66 9.55-31.37-17.64-56.45-13.22-40.4 7.11-37.58 84.69-92.67 103.53-4.47 1.53-17.61 5.85-33.57 2.95-42.37-7.72-41.33-55.87-79.91-68.78-37.95-12.7-87.19 14.27-119.37 31.81-21.2 11.55-36.38 23.25-39.27 20.03-3.18-3.54 10.48-22.99 26.31-36.91 8.18-7.2 15.33-11.5 18.46-13.35z" opacity=".2"/><path d="m-15.89 107.11c-4.25 3.56 11.87 41.14 46.73 59.69 2.07 1.1 44.52 23.07 67.34 5.1 16.8-13.23 6.94-35.48 20.42-44.37 22.67-14.95 60.64 41.36 100.33 34.16 57.02-10.34 95.58-147.59 66.36-170.81-5-3.97-14.04-5.17-20.42-1.96-12.52 6.28-12.48 28.58-13.15 46.04-1.97 51.31-3.73 97.15-19.44 105.14-26.35 13.4-82.62-83.64-121.73-70.68-29.02 9.61-19.47 73.69-49.87 82.85-31.39 9.47-70.67-50.1-76.57-45.16z" opacity=".2"/><path d="m103.95 123.14c0 2.17-1.76 3.93-3.93 3.93s-3.93-1.76-3.93-3.93 1.76-3.93 3.93-3.93 3.93 1.76 3.93 3.93z"/><circle cx="194.95" cy="146.61" r="3.93"/><circle cx="197.01" cy="61.91" r="3.93"/><circle cx="259.23" cy="185.02" r="6.18"/><circle cx="209.32" cy="102.08" r="6.18"/><path d="m117.21 284.06c0 2.02-1.63 3.65-3.65 3.65s-3.65-1.63-3.65-3.65 1.63-3.65 3.65-3.65 3.65 1.63 3.65 3.65z"/><circle cx="195.44" cy="223.73" r="4.41"/><path d="m199.51 284.62c0 1.71-1.38 3.09-3.09 3.09s-3.09-1.38-3.09-3.09 1.38-3.09 3.09-3.09 3.09 1.38 3.09 3.09z"/><circle cx="107.9" cy="185.02" r="3.09"/><path d="m32.38 238.43c0 2.72-2.21 4.93-4.93 4.93s-4.93-2.21-4.93-4.93 2.21-4.93 4.93-4.93 4.93 2.21 4.93 4.93z"/><path d="m87.71 164.13c0 3.75-3.04 6.78-6.78 6.78s-6.78-3.04-6.78-6.78 3.04-6.78 6.78-6.78 6.78 3.04 6.78 6.78z"/><circle cx="24.43" cy="141.29" r="3.09"/><circle cx="40.76" cy="184.98" r="4.2"/><circle cx="102.93" cy="72.63" r="4.96"/><circle cx="244.29" cy="147.45" r="3.09"/></g><g filter="url(#c)"><g clip-path="url(#d)"><circle cx="252.02" cy="112.71" fill="#fff" r="15.29"/><path d="m259.25 95.11c.46 3.45 1.15 12.02-3.24 21.5-4.18 9.02-10.68 13.96-13.59 15.9 7.82-.34 15.63-.69 23.45-1.03l3.53-34.06-10.16-2.31z" fill="#cebd2d"/></g><circle cx="74.56" cy="230.95" fill="#fff" r="27.19"/><path d="m56.69 248.3c-4.66 4.83-6.91 13.91-3.87 15.46 11.89 6.06 56.14-50.19 51.46-59.91-2.52-5.24-12.32-.09-17.88 5.33" fill="none" stroke="#cebd2d" stroke-linecap="round" stroke-miterlimit="10" stroke-width="7.38"/><path d="m58.03 252.54 35.26-41.3c-4.88-4.63-11.46-7.48-18.72-7.48-15.02 0-27.19 12.18-27.19 27.19 0 8.8 4.18 16.61 10.66 21.58z" fill="#fff"/><g clip-path="url(#e)"><circle cx="221.8" cy="192.75" fill="#fff" r="33.43"/><g fill="none" stroke="#cebd2d" stroke-linecap="round" stroke-miterlimit="10"><path d="m206.54 173.2c3.44 3.3 9.88 8.61 19.44 12.07 10.09 3.65 18.89 3.52 23.71 3.09" stroke-width="7"/><path d="m202.43 180.56c4.47 3.49 11.1 7.9 19.87 11.34 9.35 3.67 17.7 4.9 23.56 5.3" stroke-width="2"/><g stroke-width="5"><path d="m198.74 186.75c5.39 3.51 12.48 7.45 21.2 10.75 9.4 3.55 17.9 5.3 24.59 6.18"/><path d="m196.38 201.03c5.87 1.38 12.49 3.31 19.58 6.04 7.72 2.97 14.41 6.26 20.03 9.42"/></g></g></g><g clip-path="url(#f)"><circle cx="53.91" cy="106" fill="#fff" r="34.16"/><g fill="#cebd2d"><path d="m75.32 88.28c-5.84-2.82-10.24 5.59-21.66 5.72-12.85.14-19.85-10.37-24.67-6.92-2.63 1.88-3 6.78-1.5 9.93 2.25 4.76 8.78 5.65 11.43 6.02 13.44 1.85 18.56-7.56 27.98-4.81 8.32 2.43 10.48 11.55 12.94 10.53 3.1-1.29 2.56-17.04-4.51-20.46z"/><path d="m24.38 105.37c2.41-2.75 7.64 1.59 19.04 1.27 10.07-.28 15.08-3.92 16.25-2.11 1.42 2.19-4.44 9.74-12.04 13.54-2.83 1.41-11.73 5.86-18.36 1.2-4.97-3.49-7.31-11.15-4.9-13.9z"/><path d="m66.39 105.99c-7.32 1.72-6.35 11.22-14.74 17.59-8.98 6.81-19.78 3.32-20.16 5.88-.37 2.54 9.95 7.96 21.06 7.66 9.91-.27 23.4-5.17 26.18-15.18 1.01-3.66 1.07-9.7-2.78-13.29-2.31-2.15-6.07-3.47-9.55-2.66z"/></g></g></g><g filter="url(#g)"><path d="m119.7-31.07h58.95v266.14c0 16.27-13.21 29.48-29.48 29.48s-29.48-13.21-29.48-29.48v-266.14z" fill="url(#h)"/><g fill="#fff"><rect height="24.24" rx="3.3" width="6.6" x="152.98" y="46.1"/><rect height="32.17" rx="3.3" width="6.6" x="126.07" y="58.83"/><path d="m149.17 258.37c12.76 0 23.1-10.34 23.1-23.1v-96.2s0-15.03 0-15.03v-42.08c0-1.82-1.48-3.3-3.3-3.3s-3.3 1.48-3.3 3.3v34.77c0 1.82-1.48 3.3-3.3 3.3s-3.3-1.48-3.3-3.3v-16.15c0-1.82-1.48-3.3-3.3-3.3s-3.3 1.48-3.3 3.3v9.43c0 1.82-1.48 3.3-3.3 3.3s-3.3-1.48-3.3-3.3v-36.31c0-1.82-1.48-3.3-3.3-3.3s-3.3 1.48-3.3 3.3v58.32c0 1.82-1.48 3.3-3.3 3.3s-3.3-1.48-3.3-3.3v-24.47c0-1.82-1.48-3.3-3.3-3.3s-3.3 1.48-3.3 3.3v16.49s0 15.03 0 15.03v96.2c0 12.76 10.34 23.1 23.1 23.1z"/></g><path d="m161.02 140.26c2.36 1.39 3.86 2.75 3.84 5.9-.16 27.05-.31 54.11.01 81.16.13 10.96-11.38 20.01-21.06 18.81-3.99-.5-6.52-2.9-7.17-6.96-1.45-9.07 3.79-17.28 12.95-20.31 3.37-1.12 6.76-1.51 10.17-.21.91.35 1.3.09 1.3-.87 0-1 .04-2 .03-3.01-.02-20.97-.05-41.93-.08-62.9 0-3.77 0-7.54 0-11.62z" fill="#0895b5"/></g><path d="m95.19 252.32h235.61v40.84h-235.61z" transform="matrix(.8660254 -.5 .5 .8660254 -107.83 143.03)"/></g><path d="m149.17 11.55 139.17 80.35v160.7l-139.17 80.35-139.17-80.35v-160.7zm0-11.55-5 2.89-139.17 80.35-5 2.89v172.25l5 2.89 139.17 80.35 5 2.89 5-2.89 139.17-80.35 5-2.89v-172.25l-5-2.89-139.17-80.35z"/><path d="m149.17 16.27c5.33 0 10.66 1.38 15.44 4.14l108.3 62.53c9.55 5.51 15.44 15.71 15.44 26.74v78.16c0 11.03-5.88 21.22-15.44 26.74l-148.96 86c-4.78 2.76-10.11 4.14-15.44 4.14s-10.66-1.38-15.44-4.14l-67.64-39.05c-9.55-5.51-15.44-15.71-15.44-26.74v-125.11c0-11.03 5.88-21.22 15.44-26.74l108.3-62.53c4.78-2.76 10.11-4.14 15.44-4.14m0-8c-6.81 0-13.53 1.8-19.44 5.21l-108.29 62.53c-11.99 6.92-19.44 19.82-19.44 33.66v125.11c0 13.84 7.45 26.74 19.44 33.66l67.64 39.05c5.9 3.41 12.62 5.21 19.44 5.21s13.53-1.8 19.44-5.21l148.96-86c11.99-6.92 19.44-19.82 19.44-33.66v-78.16c0-13.84-7.45-26.74-19.44-33.66l-108.31-62.53c-5.9-3.41-12.62-5.21-19.44-5.21z"/><text fill="#fff" font-family="AtkinsonHyperlegible-Bold, 'Atkinson Hyperlegible'" font-size="30.9" font-weight="700" transform="matrix(.8660254 -.5 .5 .8660254 147.29 327.21)"><tspan x="0" y="0">GB</tspan><tspan letter-spacing="-.02em" x="41.96" y="0">C</tspan><tspan x="62.17" y="0">C2025</tspan></text></svg>