<svg height="1038" viewBox="0 0 993.5 1038" width="993.5" xmlns="http://www.w3.org/2000/svg"><path d="m.5.5h992.5v1037h-992.5z" fill="#fff" stroke="#000" stroke-miterlimit="10"/><path d="m68.3 766.57v-494.21l428-247.1 428 247.1v494.21l-428 247.11z" fill="#fff"/><path d="m496.3 25.83 427.5 246.82v493.63l-427.5 246.82-427.5-246.82v-493.63zm0-1.15-428.5 247.39v494.79l428.5 247.39 428.5-247.39v-494.79z"/><path d="m496.33 896.97v-762l-329.53 190.35v380.72l330.11 190.93 327.8-190.93-328.95-192.08" fill="none" stroke="#000" stroke-miterlimit="10" stroke-width="47"/><path d="m496.91 516.26-259.37 147.79" fill="none" stroke="#000" stroke-miterlimit="10" stroke-width="47"/><path d="m570.36 359.33c-2.35 0-4.51-.39-6.47-1.18s-3.64-1.88-5.03-3.28-2.48-3.06-3.25-4.99-1.15-4.02-1.15-6.27.38-4.34 1.13-6.27 1.82-3.6 3.2-5.01 3.05-2.52 5.01-3.32 4.15-1.2 6.56-1.2c1.8 0 3.46.2 4.97.59s2.82.98 3.92 1.77c1.48 1 2.64 2.23 3.46 3.66.83 1.44 1.34 3.01 1.55 4.72h-7.41c-.23-1.44-.92-2.63-2.07-3.56-1.15-.94-2.64-1.4-4.47-1.4-1.39 0-2.61.25-3.64.75s-1.89 1.2-2.57 2.1-1.2 1.95-1.55 3.18c-.35 1.22-.52 2.55-.52 3.99s.2 2.77.59 3.99.94 2.27 1.66 3.16c.71.88 1.58 1.57 2.61 2.08 1.03.5 2.18.75 3.46.75 2 0 3.59-.53 4.75-1.59s1.83-2.37 2-3.95h7.45c-.12 1.52-.52 2.95-1.22 4.3-.7 1.34-1.6 2.53-2.7 3.56-1.22 1.14-2.67 1.99-4.36 2.57-1.68.57-3.66.85-5.93.85z"/><path d="m603.12 359.37c-2.47 0-4.69-.39-6.67-1.18s-3.66-1.89-5.05-3.3-2.46-3.08-3.2-5.01-1.11-4.02-1.11-6.27.37-4.38 1.11-6.31 1.81-3.59 3.2-4.99 3.08-2.5 5.05-3.3 4.2-1.2 6.67-1.2 4.65.4 6.62 1.2 3.66 1.9 5.05 3.3 2.46 3.06 3.2 4.99 1.11 4.03 1.11 6.31-.37 4.34-1.11 6.27-1.81 3.6-3.2 5.01-3.08 2.51-5.05 3.3-4.18 1.18-6.62 1.18zm.05-5.7c1.39 0 2.61-.26 3.66-.77 1.05-.52 1.92-1.22 2.61-2.12.7-.9 1.22-1.95 1.57-3.18s.52-2.55.52-3.99-.17-2.78-.52-4.01-.87-2.31-1.57-3.24c-.7-.92-1.57-1.64-2.61-2.16-1.05-.51-2.26-.77-3.66-.77s-2.62.26-3.68.77c-1.06.52-1.95 1.24-2.66 2.16s-1.25 2-1.61 3.24-.54 2.57-.54 4.01.18 2.77.54 3.99.9 2.28 1.61 3.18 1.6 1.6 2.66 2.12 2.29.77 3.68.77z"/><path d="m623.25 328.35h7.58l8.54 13.15c.49.79.99 1.64 1.5 2.54.51.91.98 1.77 1.42 2.59l1.52 2.85h.09c-.09-1.03-.16-2.08-.22-3.14-.06-.9-.1-1.86-.13-2.89s-.04-1.98-.04-2.85v-12.26h7.1v30.29h-7.62l-8.45-12.99c-.49-.76-1-1.61-1.52-2.57-.52-.95-1-1.83-1.44-2.65-.52-.95-1.03-1.91-1.52-2.89h-.09c.06 1.06.12 2.12.17 3.18.06.9.11 1.86.15 2.89s.07 1.98.07 2.85v12.17h-7.1v-30.29z"/><path d="m656.05 328.35h23.79v5.9h-16.38v6.6h13.68v5.66h-13.68v12.13h-7.41z"/><path d="m683.93 328.35h24.31v5.78h-16.9v6.03h14.64v5.5h-14.64v7.04h17.21v5.94h-24.61v-30.29z"/><path d="m713.12 328.35h15.42c1.57 0 3.03.19 4.38.57s2.52.94 3.51 1.69 1.76 1.66 2.33 2.73.85 2.3.85 3.68c0 1.79-.48 3.31-1.44 4.56s-2.48 2.19-4.57 2.81v.12c1.63.46 2.82 1.15 3.59 2.06s1.27 2.18 1.5 3.81c.15 1.03.25 2 .33 2.91.07.91.14 1.72.22 2.44.07.72.17 1.3.28 1.75.12.45.3.73.57.83v.33h-7.32c-.23-.11-.4-.38-.5-.81s-.19-.97-.26-1.61-.14-1.35-.2-2.14-.13-1.6-.22-2.44c-.2-1.52-.73-2.66-1.59-3.42s-2.19-1.14-3.99-1.14h-5.49v11.56h-7.41v-30.29zm7.41 13.59h6.58c1.66 0 2.92-.36 3.79-1.08s1.31-1.69 1.31-2.91-.4-2.25-1.2-2.99c-.8-.75-2.03-1.12-3.68-1.12h-6.8z"/><path d="m744.27 328.35h24.31v5.78h-16.9v6.03h14.64v5.5h-14.64v7.04h17.21v5.94h-24.61v-30.29z"/><path d="m773.46 328.35h7.58l8.54 13.15c.49.79.99 1.64 1.5 2.54.51.91.98 1.77 1.42 2.59l1.52 2.85h.09c-.09-1.03-.16-2.08-.22-3.14-.06-.9-.1-1.86-.13-2.89s-.04-1.98-.04-2.85v-12.26h7.1v30.29h-7.62l-8.45-12.99c-.49-.76-1-1.61-1.52-2.57-.52-.95-1-1.83-1.44-2.65-.52-.95-1.03-1.91-1.52-2.89h-.09c.06 1.06.12 2.12.17 3.18.06.9.11 1.86.15 2.89s.07 1.98.07 2.85v12.17h-7.1v-30.29z"/><path d="m820.81 359.33c-2.35 0-4.51-.39-6.47-1.18s-3.64-1.88-5.03-3.28-2.48-3.06-3.25-4.99-1.15-4.02-1.15-6.27.38-4.34 1.13-6.27 1.82-3.6 3.2-5.01 3.05-2.52 5.01-3.32 4.15-1.2 6.56-1.2c1.8 0 3.46.2 4.97.59s2.82.98 3.92 1.77c1.48 1 2.64 2.23 3.46 3.66.83 1.44 1.34 3.01 1.55 4.72h-7.41c-.23-1.44-.92-2.63-2.07-3.56-1.15-.94-2.64-1.4-4.47-1.4-1.39 0-2.61.25-3.64.75s-1.89 1.2-2.57 2.1-1.2 1.95-1.55 3.18c-.35 1.22-.52 2.55-.52 3.99s.2 2.77.59 3.99.94 2.27 1.66 3.16c.71.88 1.58 1.57 2.61 2.08 1.03.5 2.18.75 3.46.75 2 0 3.59-.53 4.75-1.59s1.83-2.37 2-3.95h7.45c-.12 1.52-.52 2.95-1.22 4.3-.7 1.34-1.6 2.53-2.7 3.56-1.22 1.14-2.67 1.99-4.36 2.57-1.68.57-3.66.85-5.93.85z"/><path d="m838.89 328.35h24.31v5.78h-16.9v6.03h14.64v5.5h-14.64v7.04h17.21v5.94h-24.61v-30.29z"/><path d="m745.49 290.77h6.52l7.34 13.15c.42.79.86 1.64 1.29 2.54.44.91.84 1.77 1.22 2.59l1.31 2.85h.07c-.07-1.03-.14-2.08-.19-3.14-.05-.9-.09-1.86-.11-2.89s-.04-1.98-.04-2.85v-12.26h6.11v30.29h-6.55l-7.27-12.99c-.42-.76-.86-1.61-1.31-2.57-.45-.95-.86-1.83-1.24-2.65-.45-.95-.89-1.91-1.31-2.89h-.08c.05 1.06.1 2.12.15 3.18.05.9.09 1.86.13 2.89s.06 1.98.06 2.85v12.17h-6.11v-30.29z"/><path d="m747.04 327.9h20.9v5.78h-14.53v6.03h12.59v5.5h-12.59v7.04h14.8v5.94h-21.16v-30.29z" fill="none"/><path d="m738.86 365.03h6.48l2.66 11.85c.25 1.11.47 2.33.66 3.64.19 1.32.36 2.57.51 3.77.15 1.38.3 2.77.45 4.15h.07c.17-1.44.37-2.88.6-4.32.17-1.22.37-2.51.6-3.87.22-1.36.44-2.57.64-3.62l2.47-11.6h6.03l2.47 11.56c.2 1.06.41 2.27.64 3.64s.42 2.67.6 3.89c.2 1.44.39 2.88.56 4.32h.08c.15-1.41.32-2.81.52-4.19.15-1.19.33-2.46.54-3.79s.44-2.54.69-3.62l2.58-11.81h6.48l-7.64 30.29h-6.25l-2.7-12.7c-.2-.95-.39-2.02-.56-3.22s-.34-2.33-.49-3.42c-.18-1.28-.34-2.55-.49-3.83h-.07c-.15 1.28-.31 2.55-.49 3.83-.15 1.09-.31 2.23-.49 3.42s-.36 2.27-.56 3.22l-2.73 12.7h-6.29z"/><path d="m754.05 433.59-9.55-18.97h7l3 6.35c.32.71.65 1.47.97 2.3s.62 1.61.9 2.34c.3.87.6 1.72.9 2.56h.08c.3-.84.61-1.7.94-2.56.27-.73.58-1.51.92-2.34s.67-1.59.99-2.3l3.03-6.35h6.74l-9.55 18.89v11.4h-6.37z"/><path d="m757.25 482.77c-2.12 0-4.03-.39-5.73-1.18s-3.15-1.89-4.34-3.3c-1.2-1.41-2.12-3.08-2.75-5.01-.64-1.93-.96-4.02-.96-6.27s.32-4.38.96-6.31 1.55-3.59 2.75-4.99 2.65-2.5 4.34-3.3c1.7-.8 3.61-1.2 5.73-1.2s3.99.4 5.69 1.2 3.15 1.9 4.34 3.3c1.2 1.4 2.12 3.06 2.75 4.99.64 1.93.96 4.03.96 6.31s-.32 4.34-.96 6.27-1.55 3.6-2.75 5.01-2.65 2.51-4.34 3.3c-1.7.79-3.6 1.18-5.69 1.18zm.04-5.7c1.2 0 2.25-.26 3.15-.77.9-.52 1.65-1.22 2.25-2.12s1.05-1.95 1.35-3.18.45-2.55.45-3.99-.15-2.78-.45-4.01-.75-2.31-1.35-3.24c-.6-.92-1.35-1.64-2.25-2.16-.9-.51-1.95-.77-3.15-.77s-2.25.26-3.17.77c-.91.52-1.67 1.24-2.28 2.16s-1.07 2-1.39 3.24c-.31 1.24-.47 2.57-.47 4.01s.16 2.77.47 3.99.77 2.28 1.39 3.18c.61.9 1.37 1.6 2.28 2.12s1.97.77 3.17.77z"/><path d="m746.2 488.88h13.26c1.35 0 2.6.19 3.76.57s2.17.94 3.02 1.69 1.52 1.66 2 2.73c.49 1.07.73 2.3.73 3.68 0 1.79-.41 3.31-1.24 4.56-.82 1.25-2.13 2.19-3.93 2.81v.12c1.4.46 2.43 1.15 3.09 2.06s1.09 2.18 1.29 3.81c.12 1.03.22 2 .28 2.91s.12 1.72.19 2.44c.06.72.14 1.3.24 1.75s.26.73.49.83v.33h-6.29c-.2-.11-.34-.38-.43-.81s-.16-.97-.22-1.61-.12-1.35-.17-2.14-.11-1.6-.19-2.44c-.17-1.52-.63-2.66-1.37-3.42s-1.88-1.14-3.43-1.14h-4.72v11.56h-6.37v-30.29zm6.37 13.6h5.66c1.42 0 2.51-.36 3.26-1.08s1.12-1.69 1.12-2.91-.34-2.25-1.03-2.99c-.69-.75-1.74-1.12-3.17-1.12h-5.84z"/><path d="m745.81 526.01h6.37v4.97c0 1.38-.02 2.72-.07 4.01s-.1 2.34-.15 3.16l10.41-12.13h7.64l-10.75 12.17 11.42 18.12h-7.45l-8.5-13.72-2.55 2.89v10.83h-6.37v-30.29z"/><path d="m592.62 316.54c.52-1.26 1.26-2.44 2.2-3.54.67-.74 1.4-1.45 2.18-2.12s1.58-1.32 2.4-1.94 1.64-1.21 2.46-1.77 1.59-1.12 2.32-1.67c.94-.69 1.67-1.39 2.18-2.1s.77-1.59.77-2.64c0-1.24-.34-2.23-1.03-2.99s-1.66-1.13-2.92-1.13c-1.51 0-2.62.45-3.35 1.36-.46.52-.79 1.15-1.01 1.88s-.32 1.53-.32 2.41h-6.25c0-1.48.16-2.78.46-3.9.31-1.11.8-2.15 1.47-3.11.83-1.24 2.02-2.23 3.55-2.97s3.41-1.11 5.65-1.11c1.67 0 3.15.24 4.44.72s2.38 1.15 3.27 2 1.56 1.84 2.02 2.97.69 2.35.69 3.67c0 1.7-.34 3.14-1.01 4.31s-1.53 2.2-2.58 3.11c-.75.69-1.57 1.33-2.44 1.94-.87.6-1.75 1.2-2.62 1.77-.87.58-1.71 1.17-2.5 1.77s-1.47 1.26-2.04 1.98v.12h13.15v5.61h-21.94c.03-1.81.3-3.35.83-4.62z"/><path d="m602.81 359.44c-1.86 0-3.54-.36-5.06-1.07s-2.83-1.74-3.93-3.07-1.96-2.95-2.56-4.84c-.6-1.9-.91-4.01-.91-6.35s.3-4.45.91-6.35 1.46-3.51 2.56-4.84 2.42-2.36 3.95-3.07 3.23-1.07 5.08-1.07 3.6.36 5.14 1.07c1.55.71 2.86 1.74 3.95 3.07s1.93 2.95 2.52 4.84.89 4.01.89 6.35-.3 4.45-.89 6.35-1.44 3.51-2.54 4.84-2.43 2.36-3.97 3.07c-1.55.71-3.26 1.07-5.14 1.07zm.04-5.32c1.02 0 1.9-.24 2.62-.72.73-.48 1.32-1.16 1.77-2.04.46-.88.79-1.93 1.01-3.15.21-1.22.32-2.59.32-4.1s-.11-2.89-.32-4.12c-.22-1.24-.55-2.29-1.01-3.17s-1.05-1.57-1.77-2.06c-.73-.49-1.6-.74-2.62-.74s-1.89.25-2.6.74-1.3 1.18-1.77 2.06-.81 1.94-1.03 3.17-.32 2.61-.32 4.12.11 2.84.32 4.08.56 2.29 1.03 3.17 1.06 1.56 1.77 2.04 1.58.72 2.6.72z" fill="none"/><path d="m592.62 391.71c.52-1.26 1.26-2.44 2.2-3.54.67-.74 1.4-1.45 2.18-2.12s1.58-1.32 2.4-1.94 1.64-1.21 2.46-1.77 1.59-1.12 2.32-1.67c.94-.69 1.67-1.39 2.18-2.1s.77-1.59.77-2.64c0-1.24-.34-2.23-1.03-2.99s-1.66-1.13-2.92-1.13c-1.51 0-2.62.45-3.35 1.36-.46.52-.79 1.15-1.01 1.88s-.32 1.53-.32 2.41h-6.25c0-1.48.16-2.78.46-3.9.31-1.11.8-2.15 1.47-3.11.83-1.24 2.02-2.23 3.55-2.97s3.41-1.11 5.65-1.11c1.67 0 3.15.24 4.44.72s2.38 1.15 3.27 2 1.56 1.84 2.02 2.97.69 2.35.69 3.67c0 1.7-.34 3.14-1.01 4.31s-1.53 2.2-2.58 3.11c-.75.69-1.57 1.33-2.44 1.94-.87.6-1.75 1.2-2.62 1.77-.87.58-1.71 1.17-2.5 1.77s-1.47 1.26-2.04 1.98v.12h13.15v5.61h-21.94c.03-1.81.3-3.35.83-4.62z"/><path d="m602.77 434.62c-1.61 0-3.11-.21-4.5-.62s-2.6-1.01-3.63-1.79-1.87-1.73-2.5-2.84-1-2.37-1.11-3.77h6.49c.22 1.1.76 1.98 1.63 2.64s2 .99 3.37.99c1.51 0 2.73-.47 3.67-1.42s1.41-2.19 1.41-3.73-.48-2.84-1.43-3.73-2.13-1.34-3.53-1.34c-1.02 0-1.92.19-2.68.56-.77.37-1.37.83-1.8 1.38h-6.17l2.99-16.36h17.47v5.4h-12.75l-1.29 6.47h.08c.67-.74 1.47-1.33 2.4-1.75.93-.43 2.1-.64 3.53-.64 1.32 0 2.57.23 3.75.7s2.22 1.13 3.13 2c.9.87 1.61 1.92 2.14 3.17.52 1.25.79 2.64.79 4.18s-.28 3.04-.85 4.33c-.56 1.29-1.35 2.4-2.36 3.32s-2.22 1.63-3.63 2.12-2.95.74-4.62.74z"/><path d="m578.04 235.29h-.13c-.96 1.68-2.25 2.9-3.88 3.64-1.63.75-3.44 1.12-5.44 1.12-2.32 0-4.41-.37-6.25-1.12s-3.43-1.78-4.77-3.11c-1.42-1.44-2.5-3.13-3.22-5.07-.73-1.94-1.09-4.08-1.09-6.41 0-2.61.48-4.99 1.44-7.15s2.35-3.96 4.18-5.39c1.31-1.03 2.8-1.83 4.49-2.4 1.68-.57 3.6-.85 5.75-.85 2.03 0 3.86.24 5.49.73s3.03 1.17 4.23 2.04c1.19.87 2.16 1.91 2.9 3.11.74 1.21 1.26 2.53 1.55 3.97h-7.41c-.41-1.14-1.13-2.11-2.18-2.91s-2.5-1.2-4.36-1.2c-1.45 0-2.71.26-3.77.77-1.06.52-1.95 1.22-2.66 2.12s-1.24 1.96-1.59 3.2-.52 2.56-.52 3.97.2 2.81.61 4.03.98 2.28 1.72 3.18 1.64 1.59 2.7 2.1c1.06.5 2.26.75 3.59.75 1.13 0 2.16-.17 3.07-.51.92-.34 1.68-.78 2.31-1.32.62-.54 1.11-1.17 1.46-1.89s.52-1.46.52-2.22v-.12h-6.54v-5.17h13.55v16.2h-5.14l-.61-4.07z"/><path d="m556.13 249.79h15.33c3.34 0 5.87.69 7.58 2.08 1.83 1.49 2.74 3.42 2.74 5.78 0 3.04-1.74 5.06-5.23 6.07v.16c2.09.46 3.7 1.34 4.81 2.63 1.12 1.29 1.68 2.87 1.68 4.74 0 1.47-.28 2.74-.83 3.83s-1.34 2.01-2.35 2.77c-1.95 1.49-4.62 2.24-8.02 2.24h-15.73v-30.29zm14.29 12.17c1.28 0 2.3-.28 3.07-.83.77-.56 1.15-1.4 1.15-2.54s-.37-1.96-1.11-2.54-1.75-.88-3.03-.88h-7.01v6.8h6.93zm.65 12.66c1.45 0 2.6-.37 3.44-1.1.78-.68 1.18-1.6 1.18-2.77 0-1.33-.45-2.32-1.35-2.97s-2.03-.98-3.4-.98h-7.45v7.82z"/><path d="m569.83 321.48c-2.35 0-4.51-.39-6.47-1.18s-3.64-1.88-5.03-3.28-2.48-3.06-3.25-4.99-1.15-4.02-1.15-6.27.38-4.34 1.13-6.27 1.82-3.6 3.2-5.01 3.05-2.52 5.01-3.32 4.15-1.2 6.56-1.2c1.8 0 3.46.2 4.97.59s2.82.98 3.92 1.77c1.48 1 2.64 2.23 3.46 3.66.83 1.44 1.34 3.01 1.55 4.72h-7.41c-.23-1.44-.92-2.63-2.07-3.56-1.15-.94-2.64-1.4-4.47-1.4-1.39 0-2.61.25-3.64.75s-1.89 1.2-2.57 2.1-1.2 1.95-1.55 3.18c-.35 1.22-.52 2.55-.52 3.99s.2 2.77.59 3.99.94 2.27 1.66 3.16c.71.88 1.58 1.57 2.61 2.08 1.03.5 2.18.75 3.46.75 2 0 3.59-.53 4.75-1.59s1.83-2.37 2-3.95h7.45c-.12 1.52-.52 2.95-1.22 4.3-.7 1.34-1.6 2.53-2.7 3.56-1.22 1.14-2.67 1.99-4.36 2.57-1.68.57-3.66.85-5.93.85z"/></svg>